<?xml version="1.0" standalone="no"?>
<!DOCTYPE svg PUBLIC "-//W3C//DTD SVG 20010904//EN"
 "http://www.w3.org/TR/2001/REC-SVG-20010904/DTD/svg10.dtd">
<svg version="1.0" xmlns="http://www.w3.org/2000/svg"
 width="700.000000pt" height="700.000000pt" viewBox="0 0 700.000000 700.000000"
 preserveAspectRatio="xMidYMid meet">
<metadata>
Created by potrace 1.11, written by Peter Selinger 2001-2013
</metadata>
<g transform="translate(0.000000,700.000000) scale(0.100000,-0.100000)"
fill="#000000" stroke="none">
<path d="M0 3500 l0 -3500 3500 0 3500 0 0 3500 0 3500 -3500 0 -3500 0 0
-3500z m4353 2460 c36 -11 91 -38 123 -59 35 -24 322 -304 705 -688 623 -625
646 -651 677 -719 62 -138 59 -273 -8 -411 -39 -79 -54 -95 -528 -570 -587
-588 -608 -608 -697 -654 -93 -48 -160 -63 -253 -56 -104 8 -216 63 -309 152
l-68 65 630 630 630 630 -528 528 -528 527 -153 -160 -153 -160 -189 182
c-104 99 -200 193 -214 207 l-24 27 204 205 c197 198 293 280 356 305 110 43
225 50 327 19z m-1574 -65 c127 -30 130 -34 728 -629 599 -596 604 -602 638
-731 41 -159 -6 -322 -133 -456 l-66 -70 -628 628 -628 628 -526 -525 -525
-525 157 -153 157 -154 -214 -213 -214 -213 -235 249 c-134 142 -242 266 -252
288 -66 147 -61 297 15 433 32 57 397 431 1073 1099 295 292 324 315 442 343
76 19 133 19 211 1z m-144 -1740 c97 -25 181 -72 257 -143 l69 -66 -630 -630
-631 -631 528 -528 528 -528 154 166 153 167 204 -204 c111 -111 203 -206 203
-209 0 -3 -105 -112 -232 -241 -208 -211 -241 -240 -303 -269 -67 -33 -74 -34
-190 -34 -115 0 -123 1 -195 34 -73 34 -91 50 -724 680 -411 410 -663 668
-687 705 -103 156 -105 365 -5 511 41 60 616 646 928 946 231 222 268 250 373
275 69 17 130 17 200 -1z m3027 -882 c202 -205 229 -236 261 -303 94 -194 62
-379 -97 -549 -135 -144 -852 -864 -1063 -1066 -260 -250 -303 -276 -471 -276
-104 0 -190 28 -278 90 -100 71 -1080 1057 -1133 1140 -129 201 -102 424 73
609 64 69 5 118 695 -572 l626 -626 530 530 529 529 -138 133 c-76 72 -149
140 -162 151 l-25 19 202 209 c111 115 207 209 213 209 7 0 113 -102 238 -227z"/>
</g>
</svg>
